<?xml version="1.0" standalone="no"?>
<!DOCTYPE svg PUBLIC "-//W3C//DTD SVG 20010904//EN"
 "http://www.w3.org/TR/2001/REC-SVG-20010904/DTD/svg10.dtd">
<svg version="1.0" xmlns="http://www.w3.org/2000/svg"
 width="300.000000pt" height="300.000000pt" viewBox="0 0 300.000000 300.000000"
 preserveAspectRatio="xMidYMid meet">
<metadata>
Created by potrace 1.10, written by Peter Selinger 2001-2011
</metadata>
<g transform="translate(0.000000,300.000000) scale(0.100000,-0.100000)"
fill="#000000" stroke="none">
<path d="M1430 1681 c-5 -11 -10 -25 -10 -32 0 -7 -7 -21 -17 -31 -15 -17 -15
-18 5 -18 11 0 28 -3 37 -7 15 -5 16 -3 5 17 -7 12 -10 38 -7 56 6 38 2 43
-13 15z"/>
<path d="M1667 1669 c3 -20 0 -46 -6 -58 -11 -20 -10 -21 16 -15 36 9 39 12
25 26 -7 7 -12 19 -12 28 0 9 -7 25 -15 36 -13 18 -14 16 -8 -17z"/>
<path d="M1502 1678 c-47 -10 -54 -32 -17 -52 11 -6 22 -12 24 -13 2 -2 -2 -9
-8 -17 -10 -11 -9 -21 3 -45 19 -35 21 -88 5 -128 l-11 -28 -14 30 c-7 17 -13
45 -14 63 0 28 -3 32 -25 32 -32 0 -81 24 -94 47 -10 17 -10 17 -11 1 0 -9 5
-20 11 -23 5 -4 7 -19 4 -35 -25 -115 110 -248 230 -226 29 6 34 10 26 24 -6
12 -4 24 10 41 17 21 28 53 12 38 -3 -4 -15 5 -25 20 -20 31 -25 127 -7 139 7
4 9 21 6 40 -4 25 -2 34 8 34 12 0 35 28 35 44 0 4 -98 28 -103 25 -1 -1 -21
-5 -45 -11z m74 -74 c-7 -57 -14 -68 -32 -53 -8 7 -14 30 -14 55 0 40 2 44 25
44 25 0 26 -2 21 -46z m-129 -161 c15 -44 17 -83 4 -83 -33 0 -77 114 -50 131
18 11 29 -1 46 -48z m160 -60 c18 -24 6 -34 -32 -27 -18 3 -42 1 -54 -6 -33
-17 -42 17 -11 42 28 23 77 18 97 -9z"/>
<path d="M1377 1584 c-12 -13 -8 -20 18 -32 48 -22 84 -11 52 16 -17 15 -61
25 -70 16z"/>
<path d="M1690 1583 c-20 -8 -50 -34 -50 -45 0 -11 49 0 78 19 35 22 14 41
-28 26z"/>
<path d="M1752 1563 c-7 -12 -22 -25 -34 -29 l-21 -6 24 -14 c32 -18 42 -17
35 2 -4 9 -1 23 5 30 6 7 9 19 7 26 -3 8 -9 5 -16 -9z"/>
<path d="M1380 1180 c0 -41 19 -57 21 -17 1 16 2 18 6 5 2 -10 9 -18 14 -18
11 0 11 0 -2 39 -16 45 -39 40 -39 -9z"/>
<path d="M1436 1204 c-10 -26 -7 -41 5 -24 8 12 10 9 6 -12 -2 -17 0 -28 7
-28 6 0 11 17 11 40 0 40 -17 55 -29 24z"/>
<path d="M1533 1207 c-12 -6 -24 -21 -26 -32 -4 -18 -4 -18 -6 3 0 12 -7 22
-15 22 -15 0 -11 -36 6 -46 5 -3 4 -12 -3 -20 -9 -11 -8 -14 4 -14 9 0 18 13
22 31 7 30 7 30 22 10 15 -22 53 -29 53 -10 0 5 -4 8 -9 5 -14 -9 -34 22 -27
40 5 13 9 14 21 4 12 -10 15 -9 15 4 0 18 -24 19 -57 3z"/>
<path d="M1596 1185 c-8 -23 4 -45 24 -45 24 0 33 15 25 40 -7 23 -40 27 -49
5z"/>
<path d="M1655 1178 c11 -35 24 -45 35 -28 7 11 10 12 10 2 0 -8 5 -12 12 -10
14 5 30 58 17 58 -5 0 -9 -8 -9 -17 0 -15 -2 -15 -9 -4 -8 13 -12 13 -27 0
-16 -12 -17 -12 -11 4 4 11 1 17 -9 17 -11 0 -14 -6 -9 -22z"/>
<path d="M1477 1062 c-11 -2 -17 -11 -15 -20 3 -14 16 -17 66 -17 60 0 62 1
62 25 0 14 -3 20 -8 14 -10 -15 -81 -23 -84 -9 -2 6 -11 9 -21 7z"/>
<path d="M1600 1047 c0 -20 5 -24 34 -25 22 -1 36 4 40 13 4 11 -2 15 -24 15
-17 0 -30 5 -30 10 0 6 -4 10 -10 10 -5 0 -10 -11 -10 -23z"/>
</g>
</svg>
